<svg width="71" height="52" viewBox="0 0 71 52" fill="none" xmlns="http://www.w3.org/2000/svg">
<path d="M6.56522 32.2383L2 50H8.78261L11.6522 37.0151L13.1522 50H33.0435L34.7391 32.2383C42.8043 32.4177 56.9634 30.3508 60.1739 27.2596C64.087 23.492 58.9783 22.0567 57.7609 22.2137C52.087 22.9537 41.1087 22.2137 36.8913 22.2137C32.6739 22.2137 23.4696 22.2137 20.3913 22.2137C16.5435 22.2137 11.6522 24.7703 10.2174 27.2596" stroke="#654062" stroke-width="3"/>
<path d="M39.4348 36.2635L37.7391 49.3157H55.6739V41.0403L59.7826 49.3157H68L62.1957 31.2849C58.413 33.4378 48.5652 37.4476 39.4348 36.2635Z" fill="#7EBDC2" stroke="#654062" stroke-width="3"/>
<path d="M54.5 11.7739C54.5 15.5602 51.5365 18.5492 47.9783 18.5492C44.4201 18.5492 41.4565 15.5602 41.4565 11.7739C41.4565 7.98761 44.4201 4.99854 47.9783 4.99854C51.5365 4.99854 54.5 7.98761 54.5 11.7739Z" fill="#FCB322" stroke="#654062" stroke-width="3"/>
<path d="M33.8913 9.75549C33.8913 14.3592 30.2854 18.011 25.9348 18.011C21.5842 18.011 17.9783 14.3592 17.9783 9.75549C17.9783 5.15176 21.5842 1.5 25.9348 1.5C30.2854 1.5 33.8913 5.15176 33.8913 9.75549Z" fill="#FCB322" stroke="#654062" stroke-width="3"/>
<path d="M23.6522 31.554C27.3044 28.0554 36.7609 31.554 23.6522 44.337C10.5435 31.554 20 28.0554 23.6522 31.554Z" fill="#FF5678"/>
</svg>
