<?xml version="1.0" standalone="no"?>
<!DOCTYPE svg PUBLIC "-//W3C//DTD SVG 20010904//EN"
 "http://www.w3.org/TR/2001/REC-SVG-20010904/DTD/svg10.dtd">
<svg version="1.0" xmlns="http://www.w3.org/2000/svg"
 width="1136.000000pt" height="1136.000000pt" viewBox="0 0 1136.000000 1136.000000"
 preserveAspectRatio="xMidYMid meet">
<metadata>
Created by potrace 1.14, written by Peter Selinger 2001-2017
</metadata>
<g transform="translate(0.000000,1136.000000) scale(0.100000,-0.100000)"
fill="#000000" stroke="none">
<path d="M4019 9836 c-2 -2 -33 -7 -67 -10 -35 -3 -67 -8 -70 -10 -4 -2 -23
-7 -42 -10 -19 -3 -66 -15 -105 -27 -38 -13 -73 -23 -77 -23 -3 -1 -10 -4 -14
-8 -4 -5 -13 -8 -20 -8 -27 0 -248 -113 -299 -152 -5 -4 -39 -29 -74 -55 -88
-64 -226 -203 -293 -293 -70 -96 -130 -190 -120 -190 4 0 2 -4 -4 -8 -6 -4
-26 -41 -46 -82 -75 -163 -124 -338 -144 -520 -12 -113 -6 -327 12 -410 3 -14
7 -36 9 -50 8 -60 49 -201 85 -292 117 -296 311 -535 580 -719 56 -38 217
-124 285 -151 46 -18 186 -60 215 -64 8 -1 38 -7 65 -12 99 -20 293 -29 390
-17 97 11 133 17 170 27 22 6 53 12 70 15 92 15 308 112 435 196 150 99 294
234 385 361 11 16 25 33 30 40 19 20 100 160 129 221 53 114 77 175 69 175 -3
0 -1 6 5 13 11 12 41 119 49 172 2 17 7 41 10 55 14 68 19 109 18 152 0 27 2
48 5 48 3 0 4 39 3 87 -1 49 -2 88 -3 88 -1 0 -3 20 -5 45 -12 171 -57 345
-131 508 -19 41 -34 76 -34 78 0 10 -93 159 -101 162 -5 2 -9 8 -9 14 0 34
-208 257 -317 341 -150 115 -380 233 -513 262 -3 1 -39 9 -80 18 -41 9 -88 19
-105 23 -36 7 -340 16 -346 10z"/>
<path d="M7538 9274 c-2 -1 -21 -5 -43 -8 -22 -3 -51 -8 -65 -11 -14 -3 -35
-7 -47 -9 -80 -15 -328 -120 -361 -153 -7 -7 -17 -13 -22 -13 -15 0 -154 -112
-211 -169 -72 -74 -149 -165 -149 -179 0 -6 -6 -15 -12 -19 -19 -12 -96 -149
-126 -223 -21 -52 -62 -170 -67 -194 -2 -12 -7 -32 -9 -46 -3 -14 -8 -36 -11
-50 -18 -85 -25 -318 -12 -415 7 -48 29 -158 41 -200 2 -5 6 -23 11 -40 4 -16
11 -34 16 -40 4 -5 8 -14 9 -20 10 -44 87 -201 133 -270 138 -207 363 -397
567 -479 25 -10 56 -23 70 -29 14 -5 30 -11 35 -13 6 -1 42 -11 80 -22 39 -10
73 -20 78 -21 4 0 8 -1 10 -2 51 -12 329 -18 377 -8 19 4 51 10 70 12 102 15
279 77 370 130 77 44 167 103 200 132 58 49 200 196 218 227 9 15 20 28 24 28
4 0 8 5 8 11 0 6 11 25 24 42 38 49 120 222 149 312 25 76 30 95 43 174 3 18
8 43 10 55 3 11 7 59 9 106 2 47 4 90 5 95 1 6 1 12 0 15 -1 3 -3 37 -5 75 -2
39 -6 84 -9 100 -3 17 -8 41 -11 55 -2 14 -7 39 -11 55 -8 44 -34 127 -45 147
-5 10 -9 22 -9 28 0 21 -86 189 -133 260 -76 114 -137 183 -256 288 -30 27
-172 122 -216 145 -110 57 -252 108 -345 123 -14 2 -36 7 -50 11 -25 6 -327
13 -332 7z"/>
<path d="M3136 6523 c-1 -1 -33 -5 -71 -9 -39 -3 -73 -8 -77 -10 -3 -2 -28 -7
-55 -10 -26 -3 -56 -7 -65 -10 -9 -3 -25 -6 -35 -8 -10 -2 -47 -12 -83 -21
-36 -9 -72 -18 -80 -20 -70 -16 -372 -133 -378 -147 -2 -4 -10 -8 -17 -8 -12
0 -72 -30 -215 -106 -19 -11 -36 -22 -38 -26 -2 -5 -10 -8 -18 -8 -8 0 -14 -4
-14 -10 0 -5 -5 -10 -11 -10 -12 0 -103 -60 -107 -72 -2 -4 -8 -8 -13 -8 -6 0
-15 -4 -22 -10 -169 -136 -260 -224 -334 -320 -50 -64 -78 -109 -71 -114 19
-15 410 -237 412 -234 1 1 13 19 26 38 30 45 130 145 200 201 99 80 223 155
370 227 239 116 437 178 670 209 70 9 3019 8 3280 -1 107 -4 247 -9 310 -11
342 -11 519 -16 647 -20 78 -2 147 -6 152 -9 5 -4 12 -2 16 4 4 7 12 7 26 0
13 -8 19 -7 19 0 0 6 5 8 13 3 15 -9 940 -12 985 -2 17 4 35 3 38 -2 3 -5 10
-7 15 -3 6 3 58 7 117 9 153 5 334 18 437 32 83 11 187 6 235 -11 25 -9 49
-18 55 -19 27 -6 123 -62 143 -84 34 -37 21 -84 -49 -173 -79 -101 -143 -152
-264 -215 -78 -41 -191 -92 -220 -99 -5 -2 -23 -9 -40 -16 -56 -23 -298 -100
-399 -126 -56 -14 -108 -28 -116 -31 -8 -3 -24 -7 -35 -9 -28 -5 -48 -10 -65
-17 -8 -3 -49 -13 -90 -22 -41 -8 -85 -18 -97 -20 -13 -3 -33 -7 -45 -9 -13
-3 -57 -12 -98 -20 -103 -20 -130 -25 -169 -32 -18 -3 -43 -8 -55 -10 -86 -17
-167 -31 -221 -38 -22 -4 -51 -8 -65 -11 -14 -3 -43 -7 -65 -10 -22 -3 -58 -8
-80 -12 -22 -3 -50 -6 -62 -6 -13 -1 -23 -5 -23 -10 0 -4 -4 -6 -9 -2 -5 3
-40 1 -78 -5 -37 -5 -88 -12 -113 -15 -25 -3 -61 -7 -80 -10 -19 -3 -60 -7
-90 -10 -30 -2 -73 -6 -95 -9 -72 -9 -236 -24 -345 -31 -41 -2 -102 -7 -135
-10 -126 -11 -436 -24 -620 -26 -5 0 -106 2 -222 4 -187 3 -213 1 -214 -12 -1
-9 -2 -27 -4 -41 -8 -88 -17 -181 -20 -215 -2 -22 -6 -60 -9 -85 -2 -25 -7
-81 -11 -125 -4 -44 -8 -91 -10 -105 -2 -14 -7 -56 -10 -95 -6 -70 -12 -140
-20 -205 -2 -19 -7 -69 -10 -110 -3 -41 -8 -93 -11 -115 -2 -22 -6 -67 -9
-100 -2 -33 -4 -60 -5 -60 -1 0 -3 -18 -5 -40 -2 -22 -7 -69 -11 -105 -3 -36
-8 -90 -10 -120 -4 -52 -8 -86 -18 -190 -3 -25 -8 -74 -11 -110 -3 -36 -8 -81
-10 -100 -2 -19 -6 -66 -9 -105 -4 -38 -9 -88 -11 -110 -3 -22 -7 -69 -10
-105 -3 -36 -7 -78 -9 -95 -2 -16 -7 -66 -11 -110 -4 -44 -9 -96 -11 -115 -1
-19 -6 -66 -9 -105 -4 -38 -8 -79 -9 -90 -2 -11 -4 -32 -5 -46 -1 -20 -7 -28
-25 -31 -14 -3 -30 -2 -36 2 -5 3 -33 4 -60 0 -27 -4 -54 -4 -60 0 -6 4 -33 3
-60 0 -28 -4 -50 -4 -50 -1 0 3 -25 6 -55 6 -30 0 -55 -2 -55 -5 0 -3 -26 -3
-57 0 -32 3 -98 3 -146 0 -49 -3 -90 -2 -92 1 -2 3 -29 2 -59 -1 -31 -3 -61
-3 -66 0 -6 4 -33 3 -60 0 -28 -4 -50 -4 -50 -1 0 3 -25 6 -55 6 -30 0 -55 -2
-55 -5 0 -3 -26 -3 -57 0 -32 3 -87 3 -123 0 -36 -3 -85 -3 -110 0 -25 3 -67
2 -93 -1 -26 -3 -50 -3 -52 1 -2 3 -33 3 -70 0 -36 -3 -70 -3 -76 0 -5 4 -32
3 -59 0 -28 -4 -50 -4 -50 -1 0 5 -51 5 -265 0 -5 0 -39 0 -75 0 -36 1 -108 1
-160 1 -52 1 -99 1 -105 1 -5 1 -28 0 -50 0 -22 -1 -47 -1 -55 0 -13 0 -88 0
-152 0 -155 -1 -162 0 -164 29 -1 27 -10 100 -19 165 -3 22 -7 63 -10 90 -2
28 -7 64 -9 80 -3 17 -8 53 -11 80 -3 28 -7 70 -10 95 -9 84 -16 145 -19 170
-4 26 -12 97 -22 197 -3 31 -7 64 -9 74 -2 10 -7 49 -10 86 -4 37 -8 79 -10
93 -2 14 -6 50 -10 80 -3 30 -8 71 -11 91 -2 20 -6 54 -9 75 -3 36 -6 61 -20
179 -3 22 -7 63 -10 90 -3 28 -8 70 -12 95 -3 25 -7 54 -8 65 -1 11 -3 23 -4
26 0 3 -31 7 -68 8 -38 2 -95 5 -128 7 -151 9 -275 12 -276 6 0 -4 -2 -14 -4
-22 -2 -8 -6 -24 -9 -35 -4 -19 -33 -148 -41 -188 -2 -10 -6 -26 -9 -35 -3 -9
-8 -31 -11 -49 -3 -17 -14 -71 -26 -120 -12 -48 -23 -99 -25 -113 -3 -14 -14
-63 -25 -110 -11 -47 -23 -96 -25 -110 -4 -25 -26 -131 -29 -140 -8 -26 -16
-59 -19 -80 -3 -14 -21 -99 -41 -190 -20 -91 -39 -175 -41 -188 -3 -13 -13
-60 -24 -104 -11 -45 -17 -85 -14 -90 3 -4 1 -8 -3 -8 -5 0 -9 -10 -10 -22 -2
-25 -22 -115 -30 -138 -3 -8 -7 -26 -9 -40 -2 -14 -6 -36 -10 -50 -4 -14 -8
-28 -8 -32 -2 -16 -20 -20 -93 -19 -112 2 -166 1 -175 -5 -4 -3 -8 -2 -8 3 0
4 -25 8 -55 8 -30 0 -55 -4 -55 -8 0 -5 -4 -5 -10 -2 -5 3 -50 6 -100 6 -103
0 -97 -13 -60 119 11 41 22 82 24 90 2 8 11 42 20 76 8 33 17 69 19 80 2 10 7
26 10 34 6 16 66 254 72 286 2 10 4 20 5 22 3 3 5 10 15 57 11 50 10 47 18 65
6 14 54 201 62 243 2 10 7 27 10 37 3 10 7 27 9 37 2 10 9 38 16 63 7 25 14
52 15 60 2 8 4 15 5 15 1 0 3 9 5 20 2 12 22 88 44 170 36 137 48 182 55 225
2 8 6 22 9 30 6 13 73 270 97 370 4 19 11 44 14 55 2 11 21 83 41 160 20 77
38 149 41 160 17 65 16 68 -81 92 -49 12 -107 27 -127 33 -21 5 -57 15 -80 21
-24 6 -56 14 -73 19 -16 5 -44 11 -60 14 -30 5 -30 5 -48 -67 -20 -86 -25
-102 -27 -102 -1 0 -3 -11 -5 -25 -1 -14 -12 -60 -24 -102 -12 -43 -24 -86
-26 -98 -6 -26 -11 -44 -30 -110 -8 -30 -18 -71 -21 -90 -3 -19 -8 -38 -11
-42 -2 -5 -6 -16 -8 -25 -2 -10 -15 -63 -29 -118 -32 -120 -32 -120 -44 -170
-5 -22 -31 -121 -57 -220 -25 -99 -48 -187 -50 -195 -2 -8 -13 -53 -25 -99
-12 -47 -24 -92 -25 -100 -2 -9 -4 -16 -5 -16 -1 0 -3 -7 -5 -15 -8 -37 -56
-224 -80 -315 -26 -96 -30 -113 -39 -152 -2 -10 -12 -47 -21 -83 -9 -36 -18
-72 -20 -81 -2 -9 -9 -34 -15 -55 -6 -22 -14 -52 -17 -69 -3 -16 -9 -38 -15
-48 -5 -10 -7 -21 -4 -24 3 -4 1 -12 -4 -19 -6 -6 -10 -16 -9 -20 1 -5 0 -16
-4 -24 -3 -8 -7 -26 -10 -40 -3 -14 -24 -97 -47 -185 -40 -154 -45 -174 -54
-213 -2 -9 -10 -37 -17 -62 -15 -55 -19 -70 -21 -92 -1 -10 -5 -18 -9 -18 -4
0 -6 -8 -5 -18 2 -13 13 -17 49 -18 25 -1 52 -4 60 -7 7 -3 20 -2 27 3 7 4 25
4 40 0 15 -4 33 -4 39 0 7 4 30 4 52 0 22 -4 56 -4 75 0 19 4 36 4 39 -1 3 -4
12 -6 19 -3 18 7 166 10 166 4 0 -3 29 -3 65 0 36 3 65 3 65 0 0 -6 128 -3
146 4 8 3 16 1 19 -5 4 -5 11 -7 16 -4 12 8 184 9 196 2 5 -3 15 -2 22 3 8 4
26 4 41 0 15 -4 33 -4 39 0 7 4 30 4 52 0 22 -4 41 -4 44 0 2 4 21 4 42 1 21
-4 58 -4 83 -1 25 3 58 3 74 0 16 -3 49 -3 72 -2 l43 4 12 56 c6 32 13 64 14
72 2 8 4 15 5 15 1 0 4 11 6 25 3 14 9 41 14 60 5 19 12 53 16 75 3 22 10 45
15 51 5 6 7 13 4 16 -3 3 1 32 9 64 9 32 18 74 21 91 3 18 12 63 21 100 9 38
18 77 20 88 3 11 9 40 15 65 5 25 10 51 11 58 1 6 4 10 7 7 6 -6 8 -19 16
-100 3 -33 10 -94 15 -135 6 -41 12 -100 16 -130 3 -30 7 -66 8 -80 2 -14 6
-56 10 -93 4 -37 9 -78 12 -90 3 -19 10 -80 18 -182 l3 -30 71 -1 c40 -1 78
-4 85 -7 8 -3 20 -2 27 3 7 4 25 4 40 0 15 -4 33 -4 39 0 7 4 30 4 52 0 22 -4
56 -4 75 0 19 4 36 4 39 -1 3 -4 12 -6 19 -3 18 7 166 10 166 4 0 -3 29 -3 65
0 36 3 65 3 65 0 0 -6 128 -3 146 4 8 3 16 1 19 -5 4 -5 11 -7 16 -4 12 8 184
9 196 2 5 -3 15 -2 22 3 8 4 26 4 41 0 15 -4 33 -4 39 0 7 4 30 4 52 0 22 -4
41 -4 44 0 2 4 21 4 42 1 21 -4 58 -4 83 -1 25 3 59 3 75 0 17 -3 53 -3 80 0
28 3 66 3 85 0 19 -3 55 -3 80 0 25 3 58 3 74 0 16 -3 71 -3 123 0 52 3 102 2
112 -2 10 -3 24 -3 31 2 7 4 25 4 40 0 15 -4 33 -4 39 0 7 4 30 4 52 0 22 -4
56 -4 75 0 19 4 36 4 39 -1 3 -4 12 -6 19 -3 18 7 166 10 166 4 0 -3 29 -3 65
0 36 3 65 3 65 0 0 -6 128 -3 146 4 8 3 16 1 19 -5 4 -5 11 -7 16 -4 12 8 184
9 196 2 5 -3 15 -2 22 3 8 4 26 4 41 0 15 -4 33 -4 39 0 7 4 30 4 52 0 22 -4
42 -3 45 1 3 5 10 7 15 3 6 -3 40 -5 77 -4 37 1 81 1 97 0 17 -1 35 -2 40 -2
6 1 42 1 81 2 47 1 71 5 71 13 0 7 4 41 7 77 4 36 9 85 11 110 3 48 13 159 20
225 11 103 22 217 30 300 2 33 8 89 12 125 3 36 7 89 7 117 1 29 3 53 7 53 3
0 5 10 6 23 0 32 17 213 28 312 4 37 8 81 20 220 2 28 5 50 5 50 1 0 3 18 5
40 1 22 5 71 9 108 4 38 9 94 12 125 3 32 7 71 9 87 2 17 7 67 10 113 3 45 8
90 10 100 3 18 14 126 20 207 5 63 14 158 20 210 3 22 7 69 10 105 5 70 12
110 19 117 2 3 82 6 178 8 182 4 372 12 448 20 25 2 88 7 140 10 52 4 111 8
130 9 19 2 71 7 115 10 44 3 90 8 103 11 20 4 72 9 188 20 23 2 54 6 70 9 15
3 57 8 93 12 36 3 74 8 85 10 31 6 144 21 216 28 14 2 34 6 45 9 11 3 43 8 70
12 28 3 73 10 100 15 28 5 66 12 85 14 19 3 46 8 60 11 27 6 62 12 108 20 75
12 127 22 127 25 0 2 17 5 80 14 22 4 54 10 70 16 17 5 46 11 66 14 20 3 42 8
50 10 8 3 25 7 39 10 14 2 79 18 145 36 66 17 131 33 145 36 14 3 30 7 35 8 6
1 42 13 80 25 39 12 77 24 85 26 16 4 106 33 130 42 8 3 20 7 25 9 60 15 289
109 394 162 44 21 191 111 208 126 6 6 29 25 49 41 88 70 221 225 261 305 10
19 20 37 23 40 3 3 11 21 19 40 73 189 62 369 -30 508 -16 24 -29 45 -29 48 0
2 -27 31 -61 63 -52 51 -194 149 -224 156 -5 1 -23 7 -40 15 -74 32 -93 38
-183 60 -102 25 -225 31 -337 17 -96 -13 -267 -25 -418 -32 -65 -3 -123 -7
-128 -10 -5 -4 -9 -2 -9 4 0 7 -9 7 -22 3 -38 -14 -1082 -5 -1548 13 -153 6
-405 14 -624 20 -81 2 -150 6 -153 9 -2 2 -18 0 -34 -4 -16 -5 -29 -5 -29 -2
0 7 -3037 11 -3044 5z"/>
<path d="M10030 5156 c-30 -18 -75 -43 -100 -56 -25 -14 -47 -27 -50 -30 -3
-3 -25 -16 -50 -29 -25 -13 -77 -41 -116 -62 -39 -21 -74 -36 -78 -32 -3 3 -6
2 -6 -4 0 -9 -127 -69 -375 -178 -47 -21 -268 -106 -285 -111 -8 -2 -46 -15
-85 -29 -66 -25 -309 -105 -330 -109 -5 -1 -16 -5 -22 -9 -7 -5 -13 -6 -13 -2
0 3 -8 1 -18 -4 -11 -6 -30 -12 -43 -15 -13 -3 -76 -19 -139 -36 -63 -18 -124
-34 -135 -36 -11 -2 -30 -6 -43 -8 -12 -3 -25 -7 -30 -9 -4 -3 -25 -8 -47 -11
-22 -4 -47 -8 -55 -11 -14 -4 -35 -8 -97 -20 -16 -3 -50 -10 -78 -15 -48 -9
-61 -11 -150 -26 -22 -3 -47 -8 -55 -9 -15 -3 -113 -17 -140 -20 -8 0 -40 -4
-70 -8 -224 -29 -595 -39 -840 -23 -131 9 -143 10 -300 31 -14 2 -51 7 -83 10
-32 4 -67 8 -78 10 -14 3 -19 -2 -20 -18 0 -12 -2 -31 -4 -42 -4 -22 -14 -100
-20 -155 -2 -19 -7 -51 -10 -70 -2 -19 -8 -57 -11 -85 -3 -27 -8 -61 -10 -75
-2 -14 -6 -50 -9 -80 -3 -30 -7 -62 -10 -70 -2 -8 -7 -42 -10 -75 -4 -33 -8
-71 -11 -85 -2 -14 -7 -49 -10 -79 -3 -30 -7 -62 -9 -71 -2 -9 -6 -39 -9 -66
-4 -27 -9 -65 -11 -84 -3 -19 -8 -55 -11 -80 -3 -25 -7 -56 -9 -70 -2 -14 -7
-52 -11 -85 -10 -84 -12 -100 -14 -100 -1 0 -3 -21 -5 -47 -2 -25 -6 -61 -9
-80 -10 -63 -19 -133 -22 -163 -1 -16 -3 -30 -4 -30 -1 0 -3 -13 -5 -30 -1
-16 -5 -52 -9 -80 -4 -27 -9 -66 -11 -85 -2 -19 -6 -50 -9 -67 -4 -18 -8 -52
-11 -77 -2 -24 -7 -66 -11 -92 -4 -27 -8 -60 -9 -74 -2 -14 -6 -45 -9 -70 -7
-47 -21 -158 -32 -245 -3 -27 -8 -53 -11 -58 -2 -4 758 -6 1689 -5 l1693 3 2
225 c1 124 2 243 2 265 1 37 8 26 91 -140 50 -99 92 -184 93 -190 1 -5 4 -12
7 -15 3 -3 21 -38 40 -77 l35 -73 891 0 c490 0 893 3 896 6 3 3 0 22 -8 42
-16 45 -83 251 -88 272 -8 33 -78 246 -87 265 -5 11 -11 29 -12 40 -2 11 -7
27 -10 35 -15 36 -70 216 -70 228 0 6 -3 12 -7 12 -4 0 -7 6 -7 13 0 12 -56
190 -76 242 -7 17 -12 33 -13 38 -1 4 -2 8 -4 10 -1 1 -3 9 -5 17 -1 8 -13 47
-26 85 -13 39 -24 73 -25 78 -1 4 -3 9 -4 12 -1 3 -3 8 -4 13 -3 12 -67 215
-76 237 -16 45 -42 121 -45 136 -2 9 -11 39 -20 65 -9 27 -18 54 -19 59 -12
49 -20 72 -30 84 -6 8 -10 16 -8 18 3 4 -25 105 -39 138 -4 11 -42 128 -84
260 -42 132 -79 247 -82 255 -3 8 -7 20 -9 25 -1 6 -15 48 -30 95 -15 47 -28
87 -29 90 -1 3 -5 19 -10 35 -4 17 -11 35 -16 40 -4 6 -7 15 -7 20 0 12 -21
82 -33 110 -8 20 -22 65 -24 75 -1 11 -107 330 -108 329 -1 0 -27 -15 -57 -33z"/>
<path d="M3162 4988 c-201 -31 -368 -159 -418 -321 -9 -29 -20 -64 -24 -79
-16 -50 -9 -230 11 -314 26 -106 25 -102 44 -159 25 -73 130 -300 145 -315 3
-3 23 -34 44 -70 37 -62 156 -238 183 -270 7 -8 26 -33 43 -55 16 -22 39 -51
49 -65 11 -14 28 -35 38 -46 10 -12 36 -44 58 -70 84 -100 211 -237 348 -377
98 -99 98 -99 120 -81 41 37 197 199 197 207 0 4 7 7 15 7 8 0 15 3 15 8 0 4
15 23 33 43 111 122 248 282 277 323 8 12 27 35 42 51 15 17 28 36 28 43 0 6
4 12 9 12 5 0 18 15 29 33 11 17 38 57 59 87 114 161 248 413 294 555 12 39
22 71 21 72 0 2 4 17 9 35 23 77 33 268 17 345 -48 241 -244 396 -514 407
-179 7 -385 -60 -505 -165 l-42 -36 -71 54 c-39 29 -81 56 -93 59 -13 4 -23
10 -23 15 0 5 -3 8 -7 8 -5 -1 -11 0 -15 1 -5 1 -11 3 -15 5 -5 1 -21 7 -38
14 -89 37 -258 55 -363 39z"/>
</g>
</svg>
