<svg width="171" height="22" viewBox="0 0 171 22" fill="none" xmlns="http://www.w3.org/2000/svg">
<path d="M12.6 21H8.94L9.84 15.42H7.02L6.12 21H2.46L3.36 15.42H0.3L0.81 12.3H3.87L4.35 9.27H1.29L1.8 6.15H4.86L5.7 0.989998H9.36L8.52 6.15H11.34L12.18 0.989998H15.84L15 6.15H18.06L17.55 9.27H14.49L14.01 12.3H17.07L16.56 15.42H13.5L12.6 21ZM10.35 12.3L10.83 9.27H8.01L7.53 12.3H10.35ZM19.2483 21L22.9683 0.629999H25.6683L31.0983 13.71L36.7683 0.629999H39.4683L42.8283 21H38.8683L37.0683 8.67L31.5783 21.27H30.4983L25.2483 8.67L23.2083 21H19.2483ZM46.3718 21V0.989998H50.2718V8.82H53.3918C55.4718 8.82 57.1118 9.37 58.3118 10.47C59.5518 11.61 60.1718 13.1 60.1718 14.94C60.1718 16.3 59.8118 17.5 59.0918 18.54C57.9718 20.18 56.0818 21 53.4218 21H46.3718ZM50.2718 12.18V17.64H52.5518C54.9518 17.64 56.1518 16.74 56.1518 14.94C56.1518 14.18 55.8818 13.53 55.3418 12.99C54.8218 12.45 53.9118 12.18 52.6118 12.18H50.2718ZM61.9118 0.989998H65.8118V21H61.9118V0.989998ZM70.3659 0.989998H75.3159C77.4959 0.989998 79.1259 1.41 80.2059 2.25C81.4459 3.21 82.0659 4.59 82.0659 6.39C82.0659 8.17 81.3159 9.48 79.8159 10.32C80.8359 10.48 81.7059 10.9 82.4259 11.58C83.3859 12.5 83.8659 13.75 83.8659 15.33C83.8659 17.01 83.2959 18.36 82.1559 19.38C80.9359 20.46 79.2459 21 77.0859 21H70.3659V0.989998ZM74.2659 4.17V9.3H75.3759C75.5759 9.3 75.7559 9.3 75.9159 9.3C76.0959 9.28 76.3459 9.22 76.6659 9.12C77.0059 9.02 77.2859 8.89 77.5059 8.73C77.7459 8.55 77.9559 8.29 78.1359 7.95C78.3159 7.59 78.4059 7.17 78.4059 6.69C78.4059 5.83 78.1259 5.2 77.5659 4.8C77.0059 4.38 76.2859 4.17 75.4059 4.17H74.2659ZM74.2659 12.3V17.82H75.9459C77.1059 17.82 77.9959 17.64 78.6159 17.28C79.4359 16.8 79.8459 16.03 79.8459 14.97C79.8459 13.89 79.3559 13.13 78.3759 12.69C77.8159 12.43 76.9259 12.3 75.7059 12.3H74.2659ZM86.4553 21L90.1753 0.629999H92.8753L98.3053 13.71L103.975 0.629999H106.675L110.035 21H106.075L104.275 8.67L98.7853 21.27H97.7053L92.4553 8.67L90.4153 21H86.4553ZM124.679 0.989998V4.35H117.479V8.82H124.379V12.18H117.479V17.64H124.679V21H113.579V0.989998H124.679ZM142.982 15.72V20.28C141.502 21.06 139.852 21.45 138.032 21.45C135.112 21.45 132.672 20.52 130.712 18.66C128.572 16.6 127.502 14.05 127.502 11.01C127.502 7.77 128.572 5.16 130.712 3.18C132.592 1.42 135.042 0.539999 138.062 0.539999C139.822 0.539999 141.462 0.949999 142.982 1.77V6.33C141.682 4.83 140.072 4.08 138.152 4.08C136.192 4.08 134.592 4.77 133.352 6.15C132.132 7.51 131.522 9.15 131.522 11.07C131.522 13.17 132.202 14.84 133.562 16.08C134.922 17.3 136.502 17.91 138.302 17.91C140.182 17.91 141.742 17.18 142.982 15.72ZM157.367 4.35H152.867V21H148.967V4.35H144.467V0.989998H157.367V4.35ZM170.939 0.989998V4.35H163.739V8.82H170.639V12.18H163.739V17.64H170.939V21H159.839V0.989998H170.939Z" fill="#FCB322"/>
</svg>
